#!OML:ASF H:\BabyWalks\Project 1\Capture day 1\Session 1\baby.ASF
:FULLY-SPECIFIED
:DEGREES
300
root -16.5469 17.3545 -6.38197 -161.353 75.054 -166.523
lowerback 19.2092 -2.36047 0.859699
upperback 3.71038 -2.41142 2.72561
thorax -6.64676 -1.03893 3.0157
lowerneck 2.16568 2.85222 7.03561
upperneck -24.1528 4.59536 -4.71497
head -7.48596 2.38603 -3.1125
rclavicle 6.55989e-015 -5.1684e-015
rhumerus -48.5297 0.327317 -77.5027
rradius 41.2969
rwrist 4.21466
rhand -8.5987 -17.4761
rfingers 7.12502
rthumb 17.3327 -46.7233
lclavicle 6.55989e-015 -5.1684e-015
lhumerus -46.8459 -10.5523 82.9708
lradius 58.5209
lwrist 7.45167
lhand -7.20344 13.1203
lfingers 7.12502
lthumb 18.6751 42.2438
rfemur -27.7937 19.0758 20.2387
rtibia 36.0961
rfoot -14.7483 2.91426
rtoes -5.61128
lfemur -6.98143 2.76263 -12.7729
ltibia 48.5072
lfoot -19.8675 -21.6591
ltoes -4.34803
301
root -16.4506 17.357 -6.40882 -161.169 74.7604 -166.333
lowerback 19.2976 -2.40848 1.1958
upperback 3.70841 -2.38195 2.89692
thorax -6.70433 -1.02539 3.00642
lowerneck 2.16619 2.80822 7.08094
upperneck -24.1125 4.49172 -4.92078
head -7.47038 2.35028 -3.18033
rclavicle 6.89783e-014 -4.17448e-015
rhumerus -48.4411 0.491739 -77.5969
rradius 41.5474
rwrist 4.27524
rhand -8.77125 -17.4352
rfingers 7.12502
rthumb 17.1666 -46.6969
lclavicle 6.89783e-014 -4.17448e-015
lhumerus -46.8887 -10.3598 83.2268
lradius 58.0397
lwrist 7.22542
lhand -7.50719 13.1968
lfingers 7.12502
lthumb 18.383 42.3482
rfemur -27.4257 19.0557 20.5054
rtibia 36.2344
rfoot -15.1491 2.55284
rtoes -5.73021
lfemur -8.13272 2.7092 -12.3407
ltibia 50.5474
lfoot -18.816 -22.4857
ltoes -4.15913
302
root -16.356 17.3593 -6.43629 -160.952 74.4839 -166.114
lowerback 19.3908 -2.44906 1.51642
upperback 3.70704 -2.34404 3.07096
thorax -6.76322 -1.00733 3.00718
lowerneck 2.15315 2.76585 7.09976
upperneck -24.0667 4.39157 -5.10624
head -7.45188 2.3168 -3.23673
rclavicle 1.13307e-014 2.04748e-014
rhumerus -48.35 0.714539 -77.7034
rradius 41.8519
rwrist 4.25008
rhand -8.8466 -17.3241
rfingers 7.12502
rthumb 17.0941 -46.5921
lclavicle 1.13307e-014 2.04748e-014
lhumerus -46.9432 -10.1868 83.4839
lradius 57.6104
lwrist 6.97933
lhand -7.59969 13.2308
lfingers 7.12502
lthumb 18.294 42.3905
rfemur -27.0591 19.0743 20.7704
rtibia 36.3476
rfoot -15.5183 2.16334
rtoes -5.94041
lfemur -9.2903 2.64077 -11.9188
ltibia 52.4937
lfoot -18.0678 -23.134
ltoes -4.0103
303
root -16.2627 17.3615 -6.46439 -160.765 74.2457 -165.927
lowerback 19.4761 -2.46789 1.81127
upperback 3.70749 -2.28421 3.22616
thorax -6.8163 -0.978626 2.9965
lowerneck 2.14966 2.71447 7.12232
upperneck -24.0328 4.28425 -5.27576
head -7.44027 2.27823 -3.28886
rclavicle -2.25621e-014 -2.98177e-014
rhumerus -48.2699 0.935742 -77.8235
rradius 42.1906
rwrist 4.15896
rhand -8.8697 -17.125
rfingers 7.12502
rthumb 17.0719 -46.3949
lclavicle -2.25621e-014 -2.98177e-014
lhumerus -47.0153 -10.0726 83.7273
lradius 57.2383
lwrist 6.725
lhand -7.48207 13.2068
lfingers 7.12502
lthumb 18.4071 42.3559
rfemur -26.7026 19.1465 21.0096
rtibia 36.4563
rfoot -15.8688 1.74837
rtoes -6.22148
lfemur -10.4397 2.60005 -11.5296
ltibia 54.3173
lfoot -17.6255 -23.6322
ltoes -3.95037
304
root -16.1708 17.3636 -6.49328 -160.687 74.0615 -165.858
lowerback 19.5527 -2.46082 2.06138
upperback 3.70833 -2.20319 3.34773
thorax -6.86434 -0.939728 2.96919
lowerneck 2.16614 2.65199 7.16416
upperneck -24.0135 4.16724 -5.43615
head -7.43795 2.23255 -3.34179
rclavicle 4.54223e-014 1.78906e-014
rhumerus -48.2054 1.13316 -77.9589
rradius 42.56
rwrist 3.9786
rhand -8.84628 -16.872
rfingers 7.12502
rthumb 17.0944 -46.14
lclavicle 4.54223e-014 1.78906e-014
lhumerus -47.1149 -10.02 83.9469
lradius 56.9292
lwrist 6.4742
lhand -7.17177 13.1283
lfingers 7.12502
lthumb 18.7056 42.2489
rfemur -26.3609 19.2699 21.1931
rtibia 36.5734
rfoot -16.2085 1.32061
rtoes -6.5497
lfemur -11.5707 2.60725 -11.2048
ltibia 55.9956
lfoot -17.4529 -24.0076
ltoes -4.02095
305
root -16.0799 17.3662 -6.52301 -160.746 73.9398 -165.935
lowerback 19.6173 -2.43224 2.25453
upperback 3.71444 -2.11023 3.43315
thorax -6.8995 -0.894975 2.93129
lowerneck 2.18172 2.58688 7.20611
upperneck -24.0029 4.05121 -5.57834
head -7.43919 2.18593 -3.38917
rclavicle 6.75868e-015 -3.49861e-014
rhumerus -48.1355 1.31305 -78.1108
rradius 42.9482
rwrist 3.69066
rhand -8.77722 -16.6012
rfingers 7.12502
rthumb 17.1609 -45.8634
lclavicle 6.75868e-015 -3.49861e-014
lhumerus -47.2378 -10.0011 84.1329
lradius 56.6803
lwrist 6.24067
lhand -6.69414 12.9968
lfingers 7.12502
lthumb 19.165 42.0725
rfemur -26.0362 19.4471 21.3085
rtibia 36.7029
rfoot -16.5453 0.882575
rtoes -6.89441
lfemur -12.6794 2.68923 -10.9588
ltibia 57.5089
lfoot -17.4937 -24.2783
ltoes -4.24751
306
root -15.9896 17.3697 -6.55365 -160.952 73.8844 -166.174
lowerback 19.6568 -2.38401 2.37979
upperback 3.73018 -2.0111 3.48418
thorax -6.90945 -0.847006 2.89155
lowerneck 2.18908 2.52347 7.24411
upperneck -23.9961 3.94045 -5.70537
head -7.44076 2.14104 -3.43118
rclavicle 2.88238e-014 -9.54166e-015
rhumerus -48.0546 1.48301 -78.2774
rradius 43.354
rwrist 3.29535
rhand -8.67747 -16.3435
rfingers 7.12502
rthumb 17.2569 -45.5973
lclavicle 2.88238e-014 -9.54166e-015
lhumerus -47.3797 -9.99586 84.2837
lradius 56.4873
lwrist 6.03778
lhand -6.07835 12.826
lfingers 7.12502
lthumb 19.757 41.8419
rfemur -25.7277 19.6784 21.3489
rtibia 36.843
rfoot -16.8865 0.442031
rtoes -7.18885
lfemur -13.7619 2.85041 -10.7975
ltibia 58.8455
lfoot -17.6733 -24.4634
ltoes -4.5974
307
root -15.8996 17.3742 -6.58517 -161.308 73.8842 -166.574
lowerback 19.6763 -2.32445 2.44434
upperback 3.75532 -1.91514 3.50091
thorax -6.89725 -0.80036 2.84867
lowerneck 2.18348 2.46556 7.27578
upperneck -23.9899 3.83949 -5.81775
head -7.44033 2.10028 -3.4676
rclavicle 5.96354e-016 8.34896e-015
rhumerus -47.9592 1.64485 -78.4617
rradius 43.7776
rwrist 2.78177
rhand -8.54836 -16.1488
rfingers 7.12502
rthumb 17.3811 -45.3916
lclavicle 5.96354e-016 8.34896e-015
lhumerus -47.5379 -9.99005 84.394
lradius 56.3397
lwrist 5.87477
lhand -5.35562 12.628
lfingers 7.12502
lthumb 20.4517 41.5709
rfemur -25.4276 19.9548 21.3192
rtibia 36.9871
rfoot -17.2355 -0.00216457
rtoes -7.42238
lfemur -14.818 3.08286 -10.7202
ltibia 59.9989
lfoot -17.936 -24.5688
ltoes -5.04717
308
root -15.8099 17.3797 -6.61752 -161.777 73.9263 -167.099
lowerback 19.6691 -2.24889 2.4699
upperback 3.7847 -1.81251 3.48146
thorax -6.86606 -0.750838 2.78577
lowerneck 2.18446 2.4004 7.31869
upperneck -23.9838 3.7325 -5.91695
head -7.44195 2.05441 -3.50142
rclavicle -2.40529e-014 3.57812e-014
rhumerus -47.8672 1.76606 -78.6639
rradius 44.2072
rwrist 2.20027
rhand -8.42818 -16.0111
rfingers 7.12502
rthumb 17.4968 -45.2437
lclavicle -2.40529e-014 3.57812e-014
lhumerus -47.7147 -10.0199 84.4702
lradius 56.23
lwrist 5.76315
lhand -4.5667 12.4269
lfingers 7.12502
lthumb 21.2097 41.2866
rfemur -25.1337 20.2599 21.236
rtibia 37.1282
rfoot -17.5903 -0.4459
rtoes -7.64388
lfemur -15.8533 3.37334 -10.7139
ltibia 60.97
lfoot -18.2548 -24.5783
ltoes -5.61648
309
root -15.7203 17.386 -6.65065 -162.321 73.997 -167.709
lowerback 19.6371 -2.16813 2.46534
upperback 3.81871 -1.71388 3.43749
thorax -6.8162 -0.703416 2.71342
lowerneck 2.18191 2.33754 7.36255
upperneck -23.9733 3.6306 -6.00562
head -7.44164 2.00994 -3.53198
rclavicle 1.2921e-014 -3.81667e-014
rhumerus -47.7677 1.87596 -78.8859
rradius 44.6374
rwrist 1.57631
rhand -8.33901 -15.9412
rfingers 7.12502
rthumb 17.5826 -45.1662
lclavicle 1.2921e-014 -3.81667e-014
lhumerus -47.9002 -10.0524 84.5149
lradius 56.144
lwrist 5.70206
lhand -3.74469 12.236
lfingers 7.12502
lthumb 21.9991 41.005
rfemur -24.8443 20.5913 21.1144
rtibia 37.259
rfoot -17.9459 -0.895688
rtoes -7.86692
lfemur -16.8716 3.70051 -10.762
ltibia 61.7631
lfoot -18.5954 -24.4782
ltoes -6.20596
310
root -15.6309 17.3928 -6.68456 -162.902 74.0793 -168.367
lowerback 19.5826 -2.08459 2.44744
upperback 3.85447 -1.61794 3.37523
thorax -6.75228 -0.657596 2.62881
lowerneck 2.17897 2.27356 7.40489
upperneck -23.9577 3.52883 -6.08366
head -7.44007 1.96462 -3.5586
rclavicle 2.18663e-015 -3.37934e-014
rhumerus -47.6642 1.96771 -79.119
rradius 45.0747
rwrist 0.905349
rhand -8.26074 -15.9589
rfingers 7.12502
rthumb 17.6579 -45.1771
lclavicle 2.18663e-015 -3.37934e-014
lhumerus -48.091 -10.0954 84.535
lradius 56.0722
lwrist 5.6945
lhand -2.92052 12.0805
lfingers 7.12502
lthumb 22.7902 40.7542
rfemur -24.5546 20.9326 20.973
rtibia 37.3731
rfoot -18.3045 -1.34694
rtoes -8.06531
lfemur -17.8765 4.04264 -10.8485
ltibia 62.3867
lfoot -18.9569 -24.2564
ltoes -6.82666
311
root -15.5419 17.4 -6.71916 -163.484 74.1554 -169.032
lowerback 19.5089 -1.99306 2.4434
upperback 3.88336 -1.5124 3.2908
thorax -6.68666 -0.60806 2.50981
lowerneck 2.2026 2.19353 7.47756
upperneck -23.9426 3.40934 -6.158
head -7.44453 1.90757 -3.58874
rclavicle 1.63003e-014 -1.43125e-014
rhumerus -47.5844 1.99619 -79.3639
rradius 45.503
rwrist 0.270403
rhand -8.253 -16.011
rfingers 7.12502
rthumb 17.6654 -45.2285
lclavicle 1.63003e-014 -1.43125e-014
lhumerus -48.2918 -10.1977 84.538
lradius 56.0071
lwrist 5.74101
lhand -2.12399 11.9619
lfingers 7.12502
lthumb 23.5545 40.5395
rfemur -24.2613 21.2722 20.8277
rtibia 37.4631
rfoot -18.6527 -1.80476
rtoes -8.30338
lfemur -18.8747 4.37675 -10.9577
ltibia 62.848
lfoot -19.3368 -23.9245
ltoes -7.44222
312
root -15.4535 17.4073 -6.75457 -164.038 74.212 -169.675
lowerback 19.429 -1.91344 2.44371
upperback 3.91188 -1.42132 3.20994
thorax -6.61749 -0.565445 2.39598
lowerneck 2.21499 2.11957 7.52802
upperneck -23.9197 3.29706 -6.22359
head -7.44463 1.85509 -3.61208
rclavicle 3.67752e-014 -1.19271e-014
rhumerus -47.4868 2.04147 -79.6078
rradius 45.9295
rwrist -0.362566
rhand -8.26641 -16.1241
rfingers 7.12502
rthumb 17.6525 -45.3428
lclavicle 3.67752e-014 -1.19271e-014
lhumerus -48.4853 -10.2718 84.5332
lradius 55.9387
lwrist 5.82256
lhand -1.38289 11.9023
lfingers 7.12502
lthumb 24.2652 40.3868
rfemur -23.9595 21.5929 20.6914
rtibia 37.5242
rfoot -18.9854 -2.25952
rtoes -8.56028
lfemur -19.8662 4.67425 -11.0755
ltibia 63.1543
lfoot -19.7189 -23.4983
ltoes -7.98015
313
root -15.3657 17.4152 -6.79072 -164.536 74.2411 -170.262
lowerback 19.3436 -1.84523 2.4568
upperback 3.93983 -1.34179 3.13704
thorax -6.54562 -0.528374 2.28656
lowerneck 2.21759 2.0478 7.55549
upperneck -23.8894 3.18649 -6.28075
head -7.44112 1.80461 -3.62831
rclavicle -5.82439e-014 1.03368e-014
rhumerus -47.379 2.09283 -79.8442
rradius 46.3497
rwrist -0.949616
rhand -8.32398 -16.26
rfingers 7.12502
rthumb 17.5971 -45.4837
lclavicle -5.82439e-014 1.03368e-014
lhumerus -48.6645 -10.3279 84.5269
lradius 55.8592
lwrist 5.93589
lhand -0.717441 11.8951
lfingers 7.12502
lthumb 24.903 40.2928
rfemur -23.6431 21.8897 20.5769
rtibia 37.5495
rfoot -19.2986 -2.70969
rtoes -8.81347
lfemur -20.8493 4.92065 -11.1867
ltibia 63.3095
lfoot -20.0834 -22.9944
ltoes -8.37094
314
root -15.2783 17.4235 -6.82762 -164.985 74.238 -170.793
lowerback 19.2638 -1.78619 2.4806
upperback 3.96333 -1.27053 3.07415
thorax -6.48115 -0.495213 2.18451
lowerneck 2.22703 1.97463 7.5732
upperneck -23.8573 3.07255 -6.34031
head -7.43861 1.75342 -3.64354
rclavicle 5.1684e-015 2.22639e-014
rhumerus -47.2734 2.14929 -80.0684
rradius 46.7603
rwrist -1.47135
rhand -8.42962 -16.3939
rfingers 7.12502
rthumb 17.4954 -45.6266
lclavicle 5.1684e-015 2.22639e-014
lhumerus -48.8371 -10.3708 84.5251
lradius 55.7668
lwrist 6.06675
lhand -0.143875 11.9434
lfingers 7.12502
lthumb 25.4526 40.2639
rfemur -23.2996 22.1505 20.489
rtibia 37.5333
rfoot -19.5926 -3.14228
rtoes -9.00374
lfemur -21.8164 5.11115 -11.2898
ltibia 63.3154
lfoot -20.4359 -22.4227
ltoes -8.67076
